<svg width="1114" height="248" viewBox="0 0 1500 248" fill="none" xmlns="http://www.w3.org/2000/svg">
<path opacity="0.25" fill-rule="evenodd" clip-rule="evenodd" d="M0.146028 0.215395C0.146028 0.296717 5.18394 1.09367 11.3408 1.98628C24.6343 3.91362 50.0101 9.66117 51.6511 11.1161C54.1622 13.3412 43.0127 14.3705 16.243 14.386C5.29532 14.3922 0.146028 14.5378 0.146028 14.8406C0.146028 15.1667 5.85044 15.2143 21.4253 15.0184C47.7443 14.6873 52.9615 14.1711 53.7446 11.8193C54.2092 10.4248 53.2939 9.99033 45.5238 7.92126C37.6824 5.83321 20.5083 2.45253 8.89408 0.711848C4.97338 0.124004 0.146028 -0.149781 0.146028 0.215395ZM58.8451 1.56999C76.1098 4.6068 88.4531 8.80341 90.1864 12.2251C92.8176 17.4205 74.3556 20.4197 22.7688 23.1773C0.267842 24.3801 -1.37492 24.4998 1.4042 24.7313C7.3157 25.2239 55.483 22.0717 72.022 20.1103C102.002 16.5546 100.501 9.59069 68.2632 2.66474C61.6121 1.23618 54.8496 0.0670784 53.2347 0.0670784C51.444 0.0670784 53.6332 0.653373 58.8451 1.56999ZM104.073 1.73728C128.154 7.55105 131.838 14.551 113.634 19.8996C97.2516 24.712 52.824 29.4566 14.501 30.4855C2.97561 30.7949 -3.69984 31.4036 4.22335 31.4226C13.6936 31.4451 44.3944 29.8326 60.0685 28.49C119.492 23.3984 140.461 15.5733 120.334 6.00167C115.44 3.67469 102.408 0.0670784 98.8944 0.0670784C97.9373 0.0670784 100.267 0.818728 104.073 1.73728ZM145 1.32564C157.566 4.99482 164.5 9.6298 164.554 14.3953C164.593 17.7264 164.084 18.3123 159.175 20.5913C142.313 28.4222 112.04 32.3617 48.0019 35.0577C35.5593 35.5817 19.7025 36.2164 12.7626 36.4681C5.8226 36.7198 0.146028 37.0799 0.146028 37.2681C0.146028 37.4567 2.29867 37.5253 4.93161 37.4207C77.1539 34.5504 98.4489 33.2922 119.989 30.6229C136.932 28.5237 152.897 24.9397 160.385 21.5551C165.564 19.2138 166.315 18.4719 166.924 15.1016C167.516 11.8216 166.989 10.8489 163.112 8.08274C158.592 4.85696 146.38 0.0670784 142.675 0.0670784C141.584 0.0670784 142.629 0.633236 145 1.32564ZM179.692 0.357515C180.02 0.517449 183.145 1.87514 186.639 3.37534C197.855 8.19156 201.163 11.2237 200.984 16.5252C200.857 20.2637 200.089 21.6202 197.06 23.4643C191.884 26.6153 184.271 29.1347 173.008 31.4257C152.415 35.6138 128.368 37.7243 54.0039 41.8702C0.339192 44.8621 -1.72296 44.9941 1.23888 45.2431C3.51682 45.4348 93.5189 40.3878 114.13 38.9132C146.037 36.6299 165.155 34.2329 180.516 30.5904C208.904 23.8589 212.32 13.5449 189.57 3.26188C185.682 1.50493 181.735 0.0670784 180.799 0.0670784C179.863 0.0670784 179.365 0.197581 179.692 0.357515ZM215.932 0.44697C215.932 0.680868 217.391 1.51887 219.173 2.30925C223.729 4.32953 231.079 9.51556 233.246 12.2399C235.619 15.2228 235.59 21.5427 233.188 24.1543C232.149 25.2828 227.872 27.7968 223.682 29.7408C214.599 33.9544 197.041 38.364 177.281 41.3939C146.458 46.1199 120.428 48.0871 29.2946 52.5788C13.262 53.3692 0.146028 54.1743 0.146028 54.3687C0.146028 54.5627 1.51732 54.6281 3.1914 54.5139C4.86722 54.4 27.4726 53.2553 53.4296 51.9697C79.3849 50.6844 109.143 49.0076 119.558 48.2431C179.292 43.8583 218.057 36.4301 232.983 26.5077C237.031 23.8178 237.506 22.9159 237.427 18.0741C237.36 13.8558 236.547 12.0056 233.766 9.73629C227.402 4.54445 215.932 -1.43041 215.932 0.44697ZM259.645 3.26188C275.695 19.6557 259.335 35.1538 215.247 45.3233C178.006 53.9132 132.032 57.5627 31.4699 59.9121C3.50812 60.5654 -1.00425 60.7381 0.593262 61.094C2.79637 61.5839 89.6191 59.0346 114.13 57.7606C157.46 55.5076 191.865 51.5785 216.063 46.1199C258.354 36.5792 276.534 21.5636 264.625 6.01096C260.677 0.855517 259.78 0.0670784 257.861 0.0670784C257.121 0.0670784 257.925 1.50493 259.645 3.26188ZM320.396 5.58537C292.211 18.6535 281.511 28.1492 281.446 40.1473C281.396 49.5695 287.73 56.0458 304.17 63.3823C328.667 74.3147 372.101 82.3571 420.407 84.9052C477.02 87.8916 539.485 83.156 575.251 73.1657C600.371 66.1499 608.081 60.8826 614.512 46.3433C616.491 41.8706 620.044 36.0611 622.408 33.4336C631.265 23.5851 650.439 13.3222 676.015 4.73962C683.272 2.30421 688.79 0.218105 688.275 0.103867C687.154 -0.145908 687.925 -0.375934 672.192 4.90769C648.119 12.9923 627.813 23.8503 619.707 32.9716C617.725 35.2018 614.53 40.5168 612.607 44.7827C607.157 56.8811 602.757 61.3748 591.369 66.4802C580.63 71.2949 560.735 76.3884 540.907 79.3985C528.666 81.2569 509.256 83.2028 493.496 84.1508C474.986 85.2649 438.18 85.3706 421.277 84.3584C389.459 82.4531 365.61 79.3644 342.547 74.1613C304.481 65.5737 286.463 55.6446 284.34 42.0836C282.412 29.7803 295.209 18.2151 325.799 4.61725C331.429 2.11446 335.193 0.0670784 334.166 0.0670784C333.139 0.0670784 326.942 2.55012 320.396 5.58537ZM346.695 2.29376C334.58 7.66296 323.45 15.5055 317.429 22.9148C313.255 28.047 313.261 40.6403 317.437 45.7624C331.991 63.6177 366.268 74.6826 418.919 78.5229C432.843 79.5383 436.595 79.6467 457.822 79.6467C478.997 79.6467 482.71 79.5402 495.458 78.5659C548.351 74.5234 578.979 64.6156 589.081 48.2796C590.531 45.9367 592.929 40.2732 594.413 35.694C599.348 20.4611 607.818 12.382 631.257 0.551139C631.784 0.2851 631.427 0.0670784 630.463 0.0670784C628.194 0.0670784 618.116 5.43783 610.332 10.7958C600.008 17.9038 594.143 25.8699 591.007 37.0493C588.261 46.844 584.455 52.3964 576.675 57.9608C562.952 67.7764 533.605 74.9664 495.289 77.9002C445.776 81.691 389.106 77.482 357.916 67.697C338.141 61.4929 323.909 52.4119 318.49 42.539C315.5 37.0915 317.235 26.1665 321.922 20.9324C326.944 15.3227 336.442 8.79644 346.511 4.03638C355.282 -0.109894 355.436 -1.58067 346.695 2.29376ZM383.993 2.50675C370.747 7.77759 361.045 14.3755 356.778 21.0149C352.069 28.342 355.071 39.8677 364.132 49.2477C373.945 59.4064 386.506 64.9727 406.976 68.2345C431.216 72.0969 465.434 72.3564 495.096 68.9025C508.58 67.3322 531.346 62.2856 540.085 58.9289C558.441 51.879 567.337 42.1273 567.464 28.9171C567.565 18.4641 573.741 6.97831 582.092 1.71289C583.528 0.807498 583.986 0.0670784 583.11 0.0670784C580.651 0.0670784 574.604 4.8163 570.784 9.7483C568.392 12.837 566.571 18.236 564.847 27.3681C563.479 34.6097 561.164 42.1328 559.703 44.0864C551.818 54.6196 531.609 62.7479 502.293 67.1781C489.224 69.153 478.423 70.0681 462.27 70.5676C438.293 71.31 415.267 69.5798 399.408 65.8448C387.965 63.1495 382.636 61.0696 376.229 56.799C363.857 48.5537 357.911 39.8945 357.882 30.0789C357.848 19.2262 364.872 12.1895 383.873 4.03638C393.902 -0.26673 393.996 -1.47417 383.993 2.50675ZM420.968 4.03638C379.716 20.7276 375.184 38.5786 408.365 53.701C417.647 57.9321 426.658 60.6386 436.677 62.2054C446.756 63.7819 461.335 63.8628 474.354 62.4141C488.35 60.857 506.436 56.5094 514.796 52.6926C528.485 46.4432 532.124 41.5976 534.395 26.5936C536.003 15.9768 538.672 5.3356 540.712 1.42245C541.26 0.367584 541.001 0.0589462 539.896 0.454327C536.73 1.5878 534.214 9.06597 532.58 22.1968C530.589 38.1906 528.328 42.762 519.586 48.4821C510.159 54.6502 492.557 59.679 472.908 61.8182C448.48 64.4778 429.937 62.004 410.881 53.5446C403.308 50.1829 394.275 43.9137 391.574 40.1473C388.377 35.6878 388.828 27.7139 392.527 23.302C398.15 16.5983 413.166 7.78185 428.257 2.32358C433.797 0.320726 434.23 0.0670784 432.119 0.0670784C431.381 0.0670784 426.364 1.85307 420.968 4.03638ZM453.694 2.68101C445.019 6.51632 437.58 11.4797 433.1 16.4233C425.793 24.4854 428.487 42.0154 437.985 48.218C439.588 49.2659 443.274 50.4996 446.935 51.2149C452.664 52.3344 453.929 52.4169 462.802 52.2535C471.629 52.0905 473.057 51.9251 479.67 50.2994C494.814 46.5776 499.136 42.0077 501.369 27.3681C503.071 16.1968 505.78 4.94138 507.568 1.61607C508.199 0.442322 507.968 0.0632059 506.863 0.454327C503.922 1.4937 501.273 9.67821 499.594 22.9148C497.426 40.0068 494.561 44.2646 482.357 48.5452C475.784 50.8501 469.506 51.7648 460.256 51.7648C447.015 51.7648 440.566 49.5296 436.148 43.4087C425.043 28.0284 432.112 13.5886 455.906 3.04928C459.609 1.4089 461.957 0.0670784 461.121 0.0670784C460.288 0.0670784 456.945 1.24315 453.694 2.68101ZM478.83 0.961236C464.026 9.62631 451.519 26.156 452.989 35.1131C453.983 41.167 458.936 43.8262 469.217 43.8262C479.696 43.8262 482.188 40.2767 482.154 25.4024C482.127 14.2474 483.831 8.62566 489.125 2.41419C491.241 -0.0680714 491.222 0.0670784 489.449 0.0670784C487.604 0.0670784 482.583 7.10223 480.332 12.8463C479.371 15.2956 478.729 21.8305 478.905 27.3681C479.232 37.6914 478.325 40.5141 474.082 42.374C471.035 43.7104 467.785 43.7243 463.175 42.4201C457.122 40.7081 455.316 38.5232 455.535 33.1768C455.882 24.7275 463.707 14.0282 476.308 4.77757C479.62 2.34642 481.927 0.267673 481.435 0.158469C480.944 0.049265 479.771 0.410568 478.83 0.961236ZM733.235 2.48738C719.585 5.38013 698.723 11.1013 685.452 15.5915C661.556 23.6772 654.868 28.6797 646.678 44.6007C641.263 55.1284 638.353 59.0145 632.548 63.4713C619.101 73.7977 588.547 82.8388 546.573 88.9116C536.523 90.3658 525.313 92.0003 521.663 92.5448C495.195 96.4897 485.182 101.005 491.753 106.034C495.581 108.965 500.946 110.962 517.174 115.495C551.226 125.007 607.924 136.871 647.274 142.717C689.533 148.995 724.059 151.414 765.404 150.992C836.668 150.265 901.71 139.266 928.535 123.406C938.516 117.505 941.9 113.426 942.861 106.148C943.921 98.1088 942.29 95.3245 929.385 83.137C917.435 71.851 914.941 67.9208 916.121 62.2205C917.753 54.3292 926.033 49.1652 944.211 44.6998C964.365 39.7496 991.561 36.7779 1046.01 33.5761C1081.08 31.514 1113.88 29.1398 1113.88 28.6635C1113.88 28.1659 1112.02 28.2526 1099.86 29.3168C1093.69 29.8562 1071.16 31.3421 1049.79 32.6188C1005.79 35.2471 986.907 36.8178 968.345 39.3922C936.405 43.8219 919.429 49.8367 913.9 58.6826C912.865 60.3396 912.017 62.6325 912.017 63.7776C912.017 67.2338 916.853 74.2717 923.452 80.4212C939.937 95.7818 943.195 101.28 940.162 108.618C933.432 124.897 899.032 137.873 843.7 145.004C814.383 148.783 787.86 150.397 755.398 150.381C698.556 150.352 642.693 143.389 570.038 127.278C524.268 117.129 498.788 109.887 494.342 105.764C488.434 100.283 499.916 96.3236 536.469 91.2371C578.203 85.4303 604.859 79.1925 622.267 71.1605C637.064 64.3326 641.714 59.9148 649.259 45.513C659.365 26.2219 665.997 22.1581 707.311 9.94192C713.075 8.23803 724.732 5.31933 733.216 3.45551C750.715 -0.387939 750.733 -1.22052 733.235 2.48738ZM804.994 1.00499C785.923 2.21089 782.432 2.56173 770.214 4.50224C743.857 8.68762 719.656 16.3296 706.034 24.7689C696.337 30.7763 691.211 36.3426 680.63 52.3457C672.275 64.9859 663.72 71.8727 647.435 79.0658C631.076 86.2931 615.643 89.9936 580.507 95.1154C549.061 99.6988 541.984 101.527 540.151 105.539C539.057 107.939 543.439 111.011 551.922 113.79C574.468 121.175 630.564 133.072 668.972 138.615C684.577 140.867 709.921 143.508 724.074 144.357C741.637 145.411 770.249 145.33 786.701 144.181C810.626 142.51 831.077 139.643 848.945 135.456C885.881 126.802 901.576 116.52 901.576 100.977C901.576 93.734 900.445 90.9722 892.045 77.7105C884.567 65.9048 883.419 62.0389 885.9 57.0194C890.568 47.5821 906.978 40.557 935.636 35.7296C952.258 32.9294 973.196 30.6621 1018.41 26.7667C1040.55 24.8595 1066.39 22.3989 1075.84 21.2988C1094.76 19.0976 1112.65 16.1174 1113.61 15.0071C1114.05 14.4967 1112.15 14.7213 1106.95 15.7963C1102.95 16.6231 1096.42 17.8019 1092.43 18.4161C1080.96 20.18 1045.83 23.7818 1016.43 26.2083C982.381 29.019 953.128 32.079 939.248 34.2832C913.423 38.3842 895.887 44.0233 887.292 50.9903C883.93 53.7165 883.466 55.0638 883.429 62.2205C883.389 69.6588 883.936 71.1625 889.824 79.8403C901.077 96.4204 901.912 105.931 892.924 115.116C880.732 127.576 846.658 137.66 801.282 142.239C758.096 146.596 711.689 144.629 658.816 136.199C610.162 128.442 554.933 115.48 545.689 109.65C542.215 107.459 542.471 104.773 546.334 102.88C550.158 101.008 564.949 97.9458 578.949 96.1288C613.604 91.6317 634.025 86.7593 651.95 78.7111C667.342 71.8007 676.09 64.2191 685.725 49.4413C693.019 38.2548 698.756 32.0318 706.65 26.7404C718.053 19.0965 733.419 13.1875 753.949 8.55093C772.873 4.27725 782.446 3.14764 818.916 0.884561C828.705 0.276967 829.9 0.128264 825.007 0.126715C821.657 0.125553 812.651 0.520934 804.994 1.00499ZM898.966 2.98074C890.352 3.28395 875.473 3.81526 865.902 4.16146C819.431 5.84289 782.286 10.2556 760.591 16.6719C736.83 23.6997 725.481 32.1909 713.685 51.7648C702.604 70.1525 695.554 76.5859 677.498 84.7828C663.893 90.9598 649.524 94.8032 617.321 100.88C591.958 105.666 595.003 109.994 630.453 119.546C654.452 126.012 689.034 131.818 716.974 134.072C769.426 138.303 821.544 133.008 848.667 120.695C860.926 115.13 865.218 110.741 866.279 102.688C867.183 95.8356 866.514 93.9435 857.107 76.7423C853.221 69.6363 853.525 60.069 857.792 55.25C865.08 47.0202 878.711 41.2645 905.822 34.9717C929.099 29.5689 957.162 25.0675 1007.73 18.626C1038.23 14.7407 1044.69 13.6661 1048.61 11.8309C1054.21 9.2046 1048.52 6.18367 1035.1 4.66024C1022.47 3.22625 1004.43 2.73871 958.133 2.57955C926.151 2.46957 910.479 2.57606 898.966 2.98074ZM1006.29 3.73549C1035.17 4.58279 1046.88 6.3196 1046.88 9.75411C1046.88 12.1953 1042.07 13.3509 1019.91 16.2289C955.176 24.6361 930.511 28.4249 908.546 33.3348C854.143 45.496 841.753 57.5108 857.394 82.9383C861.588 89.7551 862.287 92.1901 862.35 100.171C862.414 108.669 862.075 109.763 858.377 112.95C856.153 114.867 850.374 118.265 845.534 120.501C837.856 124.049 834.822 124.989 821.735 127.874C799.248 132.831 779.283 134.83 752.238 134.83C720.117 134.83 686.869 131.074 651.227 123.419C622.599 117.271 604.003 110.958 604.002 107.388C604 104.831 609.742 102.991 627.83 99.753C659.944 94.0051 678.979 87.5628 694.555 77.1687C703.082 71.4785 708.632 65.3297 715.387 54.0883C730.426 29.0565 741.609 21.6213 775.48 14.132C787.879 11.3906 792.465 10.6765 809.581 8.82432C820.458 7.64709 835.465 6.33431 842.929 5.90679C854.676 5.23414 902.309 3.52366 923.329 3.01985C935.542 2.7267 987.06 3.17165 1006.29 3.73549ZM936.38 8.82858C897.219 9.58527 858.927 12.3711 832.274 16.4028C820.594 18.1698 799.011 23.0855 790.289 25.9655C765.834 34.0408 757.812 41.9546 753.656 62.1074C750.174 78.9942 739.627 85.2692 695.598 96.6527C676.873 101.494 671.327 104.141 670.455 108.651C669.898 111.524 670.471 112.635 673.547 114.661C687.213 123.659 728.994 127.94 770.644 124.611C795.849 122.596 815.902 116.619 825.355 108.303C828.868 105.212 829.317 103.875 829.319 96.492C829.322 89.1908 828.597 86.9746 823.428 78.485C813.427 62.0579 815.296 52.8351 830.25 44.8423C847.518 35.6115 878.334 29.2068 954.103 19.1004C975.834 16.2018 981.619 14.4418 979.125 11.4855C977.498 9.55545 971.877 8.87312 956.723 8.76585C949.843 8.71744 940.687 8.74571 936.38 8.82858ZM972.745 10.2924C977.392 11.2291 977.578 13.3896 973.149 14.9762C971.044 15.7305 960.193 17.4534 942.205 19.8896C902.989 25.2011 885.848 27.997 866.681 32.2087C838.979 38.2963 825.233 43.7654 817.995 51.5808C814.63 55.2129 814.325 56.4881 815.086 63.7695C815.684 69.4942 817.28 74.0726 820.479 79.2347C829.582 93.925 829.846 101.39 821.526 108.734C813.847 115.513 795.99 121.182 775.186 123.447C749.638 126.229 716.456 125.276 695.189 121.15C685.609 119.292 676.017 115.144 673.64 111.831C669.832 106.528 676.996 102.422 700.742 96.2984C725.133 90.0087 736.374 85.8454 745.66 79.6626C752.433 75.1527 755.217 70.5495 757.182 60.6165C758.144 55.748 759.267 51.5034 759.677 51.1839C760.088 50.8644 761.254 48.6862 762.269 46.3433C770.731 26.8023 824.982 13.6219 910.277 10.3834C934.477 9.46483 935.78 9.43773 953.168 9.49891C966.148 9.54422 969.761 9.6906 972.745 10.2924ZM871.288 18.8506C852.126 21.2999 836.678 23.8147 830.28 25.5275C823.942 27.2233 806.447 35.0465 800.052 39.0437C797.616 40.5667 794.403 43.2434 792.912 44.9922C787.951 50.8129 790.444 53.1477 795.907 47.7955C800.287 43.5048 809.296 38.8969 820.917 35.0027C836.715 29.7094 856.581 25.543 892.541 19.981C895.367 19.5438 896.397 19.0543 896.021 18.3297C895.132 16.6208 887.468 16.7823 871.288 18.8506ZM893.528 18.1895C894.955 18.703 892.611 19.1883 878.085 21.3878C861.335 23.9243 836.438 29.1429 824.612 32.596C819.87 33.9804 811.715 37.03 806.491 39.3728C796.923 43.662 795.87 43.4459 803.656 38.792C809.345 35.3927 823.515 28.9272 829.97 26.7872C836.008 24.7856 847.142 22.8435 869.293 19.9295C883.875 18.011 891.509 17.4627 893.528 18.1895ZM1085.57 37.8234C1027.19 40.5605 1004.7 42.5889 985.024 46.8889C964.212 51.4387 955.698 56.5543 954.252 65.3808C952.063 78.7336 967.561 95.647 994.429 109.229C1015.69 119.978 1050.78 130.034 1089.93 136.602C1108.47 139.712 1113.88 140.463 1113.88 139.926C1113.88 139.732 1108.2 138.697 1101.27 137.628C1029.39 126.542 982.125 107.91 963.488 83.3225C952.766 69.1767 954.527 59.3235 968.917 52.954C986.314 45.2532 1012.25 41.9511 1079.95 38.8167C1094.3 38.1522 1107.81 37.5229 1109.97 37.4184C1112.12 37.3138 1113.88 37.0571 1113.88 36.8484C1113.88 36.6392 1113.69 36.484 1113.45 36.5029C1113.21 36.5215 1100.66 37.1159 1085.57 37.8234ZM1078.6 44.8152C1023.3 48.0491 1005.49 50.533 995.066 56.4664C984.586 62.4289 987.637 77.4285 1001.86 89.8906C1018.67 104.613 1054.52 118.131 1101 127.268C1118.76 130.76 1116.1 129.464 1097.29 125.463C1043.06 113.928 1011.04 99.9064 997.039 81.5601C993.985 77.5594 993.186 74.9083 993.076 68.4165C992.946 60.8291 993.217 60.0937 997.119 57.443C1000.25 55.3147 1003.4 54.0918 1009.65 52.5703C1023.21 49.2674 1038.9 47.7587 1088.65 44.9721C1109.88 43.7824 1119.03 43.0145 1111.18 43.08C1109.32 43.0955 1094.65 43.8765 1078.6 44.8152ZM1096.48 50.8133C1077.05 51.927 1053.59 54.6432 1042.6 57.0515C1027.44 60.3726 1020.09 65.2399 1022.53 70.3527C1030.97 88.0756 1057.89 104.072 1097.85 115.113C1109.42 118.308 1113.88 119.289 1113.88 118.635C1113.88 118.408 1109.89 117.211 1105.01 115.974C1086.61 111.31 1065.59 103.386 1053.26 96.4649C1037.39 87.5543 1023.41 72.3025 1025.83 66.5221C1028.99 58.9401 1054.49 53.7707 1100.68 51.3477C1107.94 50.9667 1113.88 50.5128 1113.88 50.3386C1113.88 49.8928 1111.31 49.9629 1096.48 50.8133ZM1096.37 58.6001C1079.82 60.4442 1068.76 62.7003 1065.36 64.9313C1062.1 67.0638 1060.77 77.1838 1063.31 80.5056C1069.22 88.2405 1086.22 96.3948 1107.54 101.72C1111.56 102.724 1113.76 103.052 1113.81 102.651C1113.85 102.312 1112.27 101.708 1110.29 101.31C1103.47 99.9358 1091.14 95.7303 1083.43 92.1479C1067.95 84.952 1061.27 76.874 1064.91 69.749C1068.03 63.6533 1074.31 61.7314 1099.94 59.0315C1107.56 58.2295 1113.81 57.4426 1113.84 57.2831C1113.92 56.7529 1110.93 56.9783 1096.37 58.6001ZM175.907 61.6807C138.61 62.4223 81.28 65.303 37.5606 68.6322C8.23279 70.8658 0.146028 71.6074 0.146028 72.0636C0.146028 72.2533 6.99898 71.8068 15.3729 71.0711C51.6528 67.8836 100.005 64.9824 147.194 63.1619C176.755 62.0211 216.498 61.9223 233.334 62.9474C253.307 64.1633 266.08 65.8227 281.361 69.1867C316.988 77.0297 328.093 88.1712 312.337 100.27C295.504 113.196 251.923 124.253 161.452 138.551C98.2679 148.536 71.8567 153.319 43.1397 159.977C23.3396 164.568 -0.419541 171.047 0.441864 171.623C0.779465 171.848 7.70377 170.167 15.8271 167.887C47.7861 158.918 85.1989 151.479 149.804 141.243C238.258 127.229 276.396 118.929 300.743 108.395C334.817 93.6508 327.748 78.0621 282.577 68.3313C257.675 62.9667 222.265 60.759 175.907 61.6807ZM1107.74 67.1417C1092.9 71.0544 1092.67 75.9977 1107 82.9197C1110.12 84.4261 1113.04 85.5778 1113.49 85.4791C1113.93 85.3799 1111.34 83.6787 1107.74 81.6983C1100.92 77.9533 1098.37 74.2976 1100.67 71.5668C1101.31 70.812 1104.56 69.2909 1107.9 68.1865C1114.91 65.8688 1114.82 65.2755 1107.74 67.1417ZM117.61 70.9073C85.0406 72.1887 50.5861 74.8011 17.0783 78.5295C-0.605744 80.4975 -0.825011 80.5277 0.466227 80.8154C0.962187 80.9258 11.8611 79.8895 24.6848 78.5125C94.3037 71.0378 165.125 68.7406 215.898 72.3099C254.229 75.0044 275.067 81.4765 275.053 90.6833C275.047 94.5697 271.873 97.854 264.738 101.355C251.57 107.818 231.521 112.866 182.084 122.165C99.1171 137.772 0.146028 157.59 0.146028 158.597C0.146028 158.808 7.38879 157.424 16.243 155.521C34.8615 151.517 145.549 129.845 186.914 122.103C232.825 113.51 251.614 108.822 265.501 102.494C277.846 96.8692 281.258 91.4311 275.945 85.8493C272.277 81.9954 265.6 79.2227 253.467 76.5158C233.126 71.9776 206.415 70.1498 161.116 70.1959C144.389 70.2129 128.762 70.4685 117.61 70.9073ZM109.779 78.6584C90.0315 79.5925 70.6403 81.0733 50.7253 83.1672C31.8196 85.1545 0.146028 89.4127 0.146028 89.9665C0.146028 90.3878 -0.543096 90.468 18.4183 87.8335C47.713 83.7635 86.7494 80.264 116.74 79.0194C135.949 78.222 166.107 78.3816 180.282 79.3555C212.168 81.5465 228.363 86.6977 225.923 93.8742C223.088 102.218 205.324 107.299 137.623 119.13C117.045 122.726 86.5528 128.207 69.8607 131.31C38.9545 137.055 0.146028 145.083 0.146028 145.731C0.146028 145.928 10.9145 143.876 24.0739 141.171C52.7857 135.27 86.7042 128.941 140.586 119.429C183.253 111.898 201.365 108.133 212.401 104.502C234.339 97.2859 235.301 88.4167 214.7 83.3178C198.603 79.3338 180.272 77.889 146.362 77.9312C132.407 77.9486 119.251 78.2104 109.779 78.6584ZM124.571 86.6787C96.1483 87.6705 69.9251 90.5815 25.3791 97.6898C0.436643 101.67 -0.65273 101.865 0.548017 102.132C1.10837 102.257 7.3157 101.416 14.3427 100.263C35.1347 96.8529 63.173 92.7504 76.9259 91.1058C113.584 86.7233 150.528 86.0212 167.28 89.3887C174.933 90.9273 178.471 92.8771 176.929 94.7064C174.533 97.5477 166.838 99.3182 123.28 107.05C99.902 111.2 72.2274 116.215 61.7791 118.195C39.5653 122.406 0.146028 131.119 0.146028 131.819C0.146028 132.085 11.6976 129.757 25.8142 126.647C52.911 120.676 75.9149 116.268 125.561 107.537C161.344 101.244 171.428 99.1664 176.348 97.0729C184.843 93.4583 178.493 89.4972 161.424 87.7631C152.355 86.8418 134.746 86.3236 124.571 86.6787ZM772.879 90.2744C765.171 92.3922 749.276 96.3669 737.554 99.1071C712.375 104.993 706.524 107.125 705.327 110.847C703.719 115.85 715.803 118.952 736.9 118.952C749.121 118.952 757.718 118.187 766.459 116.32C785.422 112.269 794.736 105.355 796.612 93.937C797.633 87.7084 797.631 87.7022 793.531 87.0633C791.274 86.7113 788.857 86.4236 788.161 86.4236C787.463 86.4236 780.586 88.1565 772.879 90.2744ZM792.649 93.983C792.51 99.5889 791.828 101.186 788.024 104.818C780.943 111.58 772.703 114.903 757.802 117.006C731.281 120.749 702.886 116.639 708.56 109.88C711.514 106.364 715.988 104.999 751.836 96.6857C760.1 94.7688 771.452 91.8423 777.06 90.1822C792.077 85.7381 792.849 85.9267 792.649 93.983ZM382.123 89.2652C371.312 90.0625 364.139 91.0012 361.971 91.9031C360.88 92.3566 356.26 95.2734 351.704 98.3853C330.32 112.99 298.763 124.259 249.611 134.843C229.478 139.179 214.398 141.772 177.648 147.219C118.04 156.054 97.41 160.333 80.4133 167.388C70.9605 171.312 67.4661 174.517 68.4163 178.395C70.2279 185.783 86.6311 189.324 130.23 191.74C229.17 197.222 342.897 197.845 448.251 193.481C510.014 190.922 544.613 187.607 570.894 181.728C593.569 176.655 602.954 171.583 602.862 164.454C602.726 153.947 585.801 146.278 526.974 130.07C489.715 119.804 474.737 114.048 461.259 104.818C448.938 96.3805 436.118 91.9887 417.707 89.8983C408.402 88.8423 391.854 88.5476 382.123 89.2652ZM415.542 90.5052C426.771 91.7502 438.608 94.5538 445.541 97.61C448.508 98.9181 454.521 102.382 458.903 105.307C473.533 115.074 486.156 119.844 528.321 131.538C574.098 144.234 590.88 150.882 598.057 159.164C605.502 167.755 595.328 175.494 568.985 181.277C536.427 188.424 488.511 192.058 391.676 194.723C359.881 195.598 263.118 195.717 230.724 194.921C199.661 194.157 152.211 192.318 129.536 190.999C95.8908 189.041 82.345 186.929 74.7768 182.461C71.7923 180.7 71.2911 179.695 71.8776 176.653C73.0348 170.659 83.2116 166.095 108.767 160.11C126.574 155.939 139.346 153.718 181.447 147.473C198.02 145.014 218.238 141.819 226.374 140.372C256.058 135.095 285.997 127.771 308.397 120.308C323.66 115.222 344.91 105.475 352.417 100.116C361.656 93.5211 364.172 92.2091 369.172 91.3807C381.621 89.3179 401.456 88.943 415.542 90.5052ZM384.785 102.139C371.965 103.377 367.606 105.034 361.266 111.079C355.45 116.625 351.438 119.042 339.192 124.374C325.348 130.401 310.219 134.84 283.096 140.833C253.173 147.445 223.683 152.364 171.743 159.408C134.551 164.451 121.392 167.428 115.698 172.088C108.869 177.676 122.546 182.227 153.36 184.623C167.76 185.742 205.822 187.274 239.537 188.091C311.675 189.838 419.901 188.937 468.439 186.185C509.303 183.868 539.126 179.025 553.382 172.393C559.429 169.579 559.624 169.35 559.612 165.035C559.602 161.182 558.975 160.2 554.966 157.751C548.033 153.518 536.474 149.281 505.867 139.757C451.404 122.808 429.93 114.645 418.606 106.585C414.355 103.559 412.632 102.836 408.255 102.242C401.947 101.386 392.999 101.347 384.785 102.139ZM408.099 103.205C410.335 103.703 413.502 105.14 415.138 106.4C424.848 113.877 447.106 122.78 485.871 134.698C540.846 151.598 552.423 156.123 557.004 162.502C563.026 170.893 536.976 179.45 492.614 183.65C460.143 186.725 404.702 188.258 325.665 188.266C267.98 188.272 215.69 187.157 172.244 184.996C132.614 183.025 113.954 179.127 117.603 173.582C121.15 168.193 133.561 165.391 184.582 158.458C272.568 146.502 325.698 134.311 352.523 119.921C355.699 118.217 360.753 114.578 363.755 111.836C369.661 106.438 371.782 105.271 378.042 103.97C387.047 102.099 401.477 101.732 408.099 103.205ZM402.939 122.854C394.985 123.362 389.675 124.846 376.006 130.376C338.831 145.417 308.736 152.382 255.087 158.364C225.457 161.668 212.033 165.188 211.754 169.725C211.483 174.186 224.519 176.515 261.178 178.553C294.623 180.412 319.115 181.051 356.019 181.027C430.539 180.978 481.177 177.594 501.399 171.31C515.573 166.905 516.681 162.969 505.84 155.535C494.838 147.991 476.928 140.894 439.118 129.097C419.231 122.891 414.666 122.104 402.939 122.854ZM414.699 123.714C419.746 124.211 454.552 134.756 470.336 140.568C483.608 145.456 496.787 151.626 503.16 155.935C507.834 159.096 508.911 160.447 509.022 163.292C509.143 166.361 508.575 167.042 504.286 168.986C488.006 176.363 436.148 180.296 355.149 180.296C310.344 180.296 269.567 178.887 237.772 176.239C214.253 174.281 208.145 169.531 222.811 164.603C229.228 162.448 237.944 161.039 260.308 158.546C311.298 152.86 341.966 145.721 377.201 131.334C390.829 125.769 394.619 124.594 401.526 123.793C407.408 123.11 408.506 123.103 414.699 123.714ZM961.613 131.045C947.66 132.152 942.019 133.416 863.481 153.03C845.144 157.61 828.421 162.14 826.319 163.099C817.19 167.259 820.825 172.113 839.189 180.285C881.764 199.23 949.942 214.412 1034.7 223.824C1066.51 227.355 1114 231.195 1113.82 230.22C1113.79 230.044 1103.8 229.179 1091.64 228.3C985.775 220.647 895.494 203.355 844.234 180.912C829.227 174.341 824.69 171.387 824.612 168.133C824.504 163.671 823.528 163.971 901.924 144.442C951.092 132.194 957.865 131.038 978.081 131.446C991.272 131.712 1000.55 132.847 1025 137.181C1035.65 139.068 1049.46 141.423 1055.7 142.413C1067.68 144.316 1110.09 149.932 1112.48 149.932C1115.2 149.932 1113.84 149.207 1110.7 148.986C1103.44 148.473 1061.26 142.531 1044.51 139.662C1034.59 137.962 1020.75 135.588 1013.76 134.385C994.232 131.025 976.325 129.878 961.613 131.045ZM414.861 140.735C412.912 141.215 408.852 142.652 405.838 143.93C394.25 148.842 381.343 151.312 336.01 157.293C292.768 162.998 283.801 164.818 283.801 167.891C283.801 171.851 311.143 173.938 362.98 173.934C405.076 173.93 432.834 172.072 451.42 168.014C471.601 163.607 476.183 157.766 464.778 150.988C460.787 148.616 442.518 142.196 435.841 140.819C429.704 139.553 419.828 139.514 414.861 140.735ZM432.798 141.198C438.157 142.034 456.017 148.125 460.747 150.73C469.036 155.298 469.842 158.712 463.617 162.905C461.535 164.306 457.813 165.485 450.146 167.17C432.657 171.015 413.626 172.614 379.512 173.105C319.98 173.963 278.979 171.044 287.354 166.545C291.536 164.299 305.073 162.097 354.032 155.701C378.186 152.546 399.217 148.253 407.281 144.832C410.459 143.484 414.652 141.989 416.601 141.51C420.653 140.513 427.551 140.381 432.798 141.198ZM965.764 143.109C955.845 143.897 951.858 144.683 909.162 154.26C864.541 164.269 860.928 165.382 861.013 169.101C861.08 172.013 865.602 174.572 878.428 178.952C922.123 193.874 979.809 207.289 1033.83 215.092C1060.17 218.896 1110.62 224.366 1113.48 223.728C1114.94 223.402 1114.33 223.328 1097.35 221.782C1018.99 214.645 948.217 200.694 885.397 180.001C863.044 172.638 859.24 169.591 867.431 165.609C871.282 163.738 878.772 161.896 914.205 154.109C959.737 144.103 966.028 143.067 978.561 143.513C986.961 143.812 991.469 144.31 1013.82 147.415C1045.67 151.838 1110.64 158.915 1113.52 158.274C1114.94 157.959 1114.49 157.906 1093.87 155.958C1069.7 153.675 1038.71 150.047 1012.95 146.484C995.528 144.075 980.084 142.535 973.913 142.592C972.892 142.601 969.223 142.834 965.764 143.109ZM621.445 147.599C619.555 148.02 617.554 148.768 616.997 149.261C616.051 150.101 628.237 162.644 631.855 164.551C632.842 165.071 635.019 165.422 637.259 165.422C641.427 165.422 679.085 159.561 684.246 158.109C691.346 156.112 687.659 154.374 670.22 151.496C642.276 146.887 629.306 145.85 621.445 147.599ZM642.806 148.239C651.233 149.191 670.178 152.197 677.524 153.747C685.835 155.501 686.068 156.721 678.394 158.306C667.19 160.62 640.596 164.707 637.582 164.578C635.169 164.474 632.976 163.053 627.223 157.867C623.21 154.249 619.867 150.779 619.794 150.157C619.519 147.799 630.682 146.868 642.806 148.239ZM970.87 155.507C960.047 156.155 945.861 158.596 932.188 162.162C908.121 168.439 906.955 171.501 925.939 178.567C955.161 189.444 1000.1 199.3 1052.27 206.273C1077.01 209.578 1113.88 213.207 1113.88 212.336C1113.88 212.125 1110.95 211.743 1107.36 211.487C1103.77 211.231 1091.43 210.017 1079.95 208.79C1014.91 201.841 956.64 189.71 923.445 176.209C909.219 170.422 915.011 166.517 948.122 159.566C960.103 157.051 971.364 155.741 981.005 155.741C988.016 155.741 999.795 156.835 1019.23 159.293C1042.12 162.186 1068.65 164.873 1092.81 166.744C1111.58 168.198 1113.88 168.319 1113.88 167.843C1113.88 167.683 1107.02 167.07 1098.65 166.481C1076.48 164.92 1046.44 161.918 1022.03 158.822C1004.66 156.62 985.186 154.847 979.955 154.993C979.438 155.007 975.349 155.238 970.87 155.507ZM385.741 159.377C352.957 163.576 347.324 164.593 349.271 165.959C352.076 167.926 359.514 168.164 379.401 166.926C410.833 164.969 431.127 160.948 429.641 156.973C429.145 155.643 428.699 155.542 423.018 155.465C418.102 155.398 410.909 156.153 385.741 159.377ZM427.178 157.596C424.239 160.421 414.602 162.844 399.525 164.548C389.807 165.647 369.048 166.971 361.548 166.971C354.796 166.971 350.766 166.009 352.736 164.867C353.574 164.381 395.3 158.851 417.325 156.309C423.825 155.558 428.644 156.188 427.178 157.596ZM707.748 163.119C686.037 164.329 666.406 168.149 643.123 175.696C603.326 188.595 555.067 195.736 490.016 198.35C463.314 199.423 454.369 200.062 443.679 201.663C418.505 205.433 408.081 210.141 398.625 222.012C395.802 225.554 389.954 231.64 385.626 235.536C377.643 242.724 373.756 247.906 376.347 247.906C377.13 247.906 377.772 247.755 377.772 247.57C377.772 246.412 384.15 239.489 389.936 234.367C393.674 231.058 398.723 225.823 401.154 222.735C409.153 212.575 415.909 208.651 432.258 204.671C442.666 202.136 457.256 200.473 476.094 199.673C534.311 197.201 563.613 194.416 598.522 188.037C614.946 185.036 628.161 181.652 646.727 175.692C664.77 169.9 678.418 166.863 694.204 165.128C706.124 163.818 708.722 163.68 721.384 163.68C733.444 163.68 736.954 163.846 746.697 164.879C784.961 168.937 809.366 179.918 809.334 193.065C809.315 201.225 802.962 207.672 779.518 223.316C771.857 228.428 761.461 235.747 756.416 239.58C751.371 243.414 746.647 246.856 745.914 247.229C745.134 247.626 745.322 247.906 746.368 247.906C748.305 247.906 754.359 244.037 761.515 238.225C764.007 236.202 773.415 229.58 782.42 223.51C791.428 217.439 801.082 210.378 803.879 207.817C822.379 190.87 810.492 176.44 770.93 167.819C753.152 163.945 727.353 162.026 707.748 163.119ZM978.145 166.449C973.055 166.901 966.016 168.667 964.071 169.979C960.139 172.629 964.674 175.472 980.035 179.988C1001.71 186.36 1025.68 191.38 1054.22 195.52C1071.24 197.99 1111.79 202.428 1113.53 202.011C1114.2 201.85 1113.8 201.642 1112.64 201.55C1100.87 200.612 1059.04 195.525 1046.01 193.448C1015.72 188.616 980.342 180.159 970.083 175.297C959.878 170.46 969.638 166.654 991.227 167.053C998.013 167.178 1007.99 168.044 1031.4 170.538C1058.6 173.436 1107.19 177.814 1112.16 177.814C1113.11 177.814 1113.88 177.64 1113.88 177.427C1113.88 177.214 1113.04 177.04 1112 177.04C1106.9 177.04 1058.99 172.717 1031.37 169.764C1005.41 166.988 998.574 166.413 990.477 166.324C985.131 166.265 979.581 166.321 978.145 166.449ZM701.474 172.667C693.607 173.587 689.531 174.497 678.338 177.832C663.611 182.22 645.725 186.491 629.233 189.56C601.569 194.707 553.955 200.538 501.098 205.252C486.137 206.587 472.327 208.06 470.409 208.527C462.407 210.474 437.418 225.435 428.372 233.694C420.48 240.9 415.268 247.906 417.8 247.906C418.638 247.906 419.833 247.078 420.456 246.067C423.023 241.89 430.556 234.213 437.021 229.18C445.151 222.852 467.249 210.31 472.454 209.069C474.455 208.592 486.666 207.269 499.587 206.13C533.41 203.147 582.966 197.658 602.954 194.68C635.014 189.903 659.6 184.797 676.709 179.363C697.159 172.869 710.724 171.26 728.707 173.198C744.673 174.918 760.64 180.382 767.597 186.506C775.097 193.109 773.799 199.817 763.247 208.988C750.232 220.297 717.192 238.319 696.264 245.524C692.46 246.834 690.128 247.906 691.083 247.906C693.847 247.906 707.14 243.056 717.087 238.419C734.557 230.275 751.81 220.283 763.259 211.678C782.662 197.093 778.068 184.746 750.143 176.425C742.056 174.015 729.003 172.086 718.713 171.779C712.37 171.59 709.35 171.746 701.474 172.667ZM1022.41 178.366C1019.71 178.804 1019.43 179.093 1020.82 179.972C1023.15 181.439 1054.04 186.002 1084.97 189.45C1108.86 192.11 1113.88 192.512 1113.88 191.755C1113.88 191.542 1112.79 191.368 1111.46 191.368C1106.8 191.368 1060.62 185.904 1043.5 183.325C1025.03 180.543 1021.29 179.677 1024.58 178.943C1026.78 178.454 1052.86 180.255 1092.21 183.615C1104.23 184.641 1113.77 185.288 1113.41 185.053C1112.66 184.552 1093.05 182.796 1059.07 180.185C1027.9 177.791 1026.4 177.716 1022.41 178.366ZM5.80172 187.542C2.69022 187.741 0.146028 188.093 0.146028 188.323C0.146028 188.573 1.36244 188.624 3.1914 188.448C4.86548 188.288 11.0833 188.075 17.0052 187.976C31.6195 187.731 43.7836 188.639 63.4654 191.444C96.7017 196.18 127.493 199.197 156.864 200.595C181.276 201.756 188.117 201.872 239.425 201.994C280.79 202.092 288.038 202.203 300.009 202.923C342.879 205.501 364.263 211.416 366.732 221.38C367.943 226.265 364.498 230.17 350.016 240.331C340.913 246.717 338.971 248.538 341.969 247.87C343.8 247.463 364.052 232.865 366.767 229.997C370.863 225.667 370.818 219.039 366.67 215.958C356.649 208.516 335.095 204.168 298.13 202.13C284.725 201.392 278.514 201.299 245.516 201.344C162.715 201.456 127.575 199.463 68.6721 191.312C58.029 189.839 44.9304 188.291 39.5671 187.871C29.2963 187.068 15.3015 186.931 5.80172 187.542ZM685.637 190.303C658.825 195.73 627.808 200.07 576.567 205.566C536.459 209.869 522.688 211.805 509.273 215.03C485.728 220.689 452.955 240.629 457.307 246.648C458.887 248.833 460.427 248.017 460.594 244.905C460.791 241.246 465.374 237.233 477.688 229.939C501.593 215.778 511.422 213.404 574.367 206.591C629.503 200.623 660.456 196.331 686.392 191.058C702.774 187.727 708.254 187.168 717.721 187.863C740.554 189.541 742.695 196.939 724.02 209.638C714.548 216.079 699.896 222.99 675.58 232.485C651.572 241.861 645.192 243.884 632.214 246.238C622.376 248.021 623.774 248.606 633.738 246.875C644.658 244.979 655.193 241.733 674.118 234.433C716.762 217.984 736.795 206.498 739.254 197.088C740.446 192.525 737.749 190.559 727.449 188.488C721.332 187.258 719.541 187.108 711.004 187.108C701.438 187.108 701.396 187.114 685.637 190.303ZM5.80172 197.208C2.69022 197.416 0.146028 197.774 0.146028 198.004C0.146028 198.243 1.44597 198.309 3.1914 198.159C15.533 197.097 23.8442 197.53 54.4946 200.837C87.6056 204.408 111.728 206.341 146.324 208.194C179.371 209.964 197.204 210.4 247.385 210.668L295.371 210.924L302.792 212.017C314.15 213.691 318.807 216.298 319.94 221.619C321.045 226.805 318.857 230.518 308.987 240.207C302.21 246.86 301.116 248.442 303.684 247.87C305.035 247.57 318.412 234.229 321.314 230.286C324.671 225.73 323.886 218.979 319.649 215.932C316.062 213.355 306.747 211.284 295.35 210.531C288.899 210.105 277.484 209.956 251.222 209.956C211.549 209.956 191.665 209.57 161.116 208.208C123.863 206.547 95.092 204.332 51.2178 199.746C26.2579 197.137 15.6948 196.547 5.80172 197.208ZM631.607 206.989C564.558 213.983 552.938 215.449 537.766 218.833C523.108 222.102 517.167 224.479 507.101 231.103C499.789 235.914 498.914 236.858 498.821 240.034C498.698 244.211 501.647 245.531 512.47 246.14C526.6 246.937 574.975 244.771 591.761 242.589C604.059 240.991 615.09 238.251 630.698 232.916C654.833 224.667 668.236 219.063 686.599 209.543C699.254 202.981 700.479 201.312 692.751 201.154C690.132 201.1 665.786 203.423 631.607 206.989ZM695.392 202.222C697.533 202.993 668.483 217.364 650.881 224.243C616.757 237.579 600.789 241.563 573.259 243.609C560.31 244.572 533.507 245.579 520.771 245.581C512.748 245.582 510.785 245.424 506.182 244.399L500.863 243.216L501.83 239.656C502.549 237.008 504.432 235.004 509.179 231.835C523.355 222.375 535.207 218.841 566.272 214.811C579.322 213.118 688.04 201.833 691.343 201.828C692.961 201.826 694.783 202.003 695.392 202.222ZM25.3791 208.513C16.4623 209.324 10.8988 210.349 5.42235 212.189C2.51968 213.163 0.16343 214.41 0.184312 214.96C0.217376 215.837 0.607184 215.77 3.395 214.409C10.7631 210.813 24.6169 208.565 37.4318 208.887C41.3316 208.985 53.1355 209.953 63.6638 211.039C114.701 216.302 157.959 218.596 218.482 219.249C235.743 219.435 252.607 219.8 255.957 220.059C272.371 221.329 279.06 223.677 278.994 228.144C278.956 230.702 271.367 244.675 268.734 247.035C268.2 247.514 268.567 247.906 269.552 247.906C271.859 247.906 272.456 247.217 277.691 238.508C282.44 230.61 283.164 226.299 280.089 224.245C277.021 222.196 266.879 220.087 256.857 219.416C251.708 219.071 234.923 218.683 215.932 218.47C156.699 217.806 116.323 215.658 65.8791 210.486C44.1055 208.254 33.7617 207.751 25.3791 208.513ZM855.386 211.065C846.46 212.276 841.257 214.025 833.802 218.32C817.748 227.569 792.658 247.906 797.303 247.906C798.147 247.906 799.201 247.514 799.645 247.035C808.49 237.482 832.175 220.142 842.865 215.391C849.808 212.305 856.922 211.114 868.335 211.126C879.15 211.138 886.854 212.004 909.407 215.748C951.668 222.763 999.94 229.334 1043.4 233.989C1084.69 238.41 1118.1 241.415 1113.01 240.25C1112.05 240.03 1103.05 239.112 1093 238.209C1028.83 232.443 961.906 223.84 901.193 213.552C882.507 210.385 866.713 209.528 855.386 211.065ZM620.977 214.948C611.651 216.377 594.711 218.629 583.331 219.952C558.836 222.799 551.207 224.444 541.26 229.021C534.217 232.262 532.929 233.989 536.323 235.647C542.598 238.712 567.518 238.047 585.632 234.331C594.935 232.423 602.522 229.764 625.698 220.291C640.6 214.2 644.021 212.192 639.293 212.315C638.546 212.334 630.303 213.519 620.977 214.948ZM622.175 220.275C598.965 229.795 594.93 231.227 584.946 233.484C570.61 236.725 550.368 237.911 541.136 236.052C535.897 234.997 536.932 232.637 544.095 229.311C553.944 224.738 559.12 223.603 583.034 220.778C594.651 219.405 611.758 217.142 621.045 215.748C630.334 214.354 638.181 213.248 638.482 213.288C638.783 213.329 631.445 216.473 622.175 220.275ZM29.7314 222.375C23.1917 222.986 17.6613 224.278 13.1628 226.244C8.07444 228.468 0.118184 234.519 0.231298 236.079C0.283504 236.783 2.76853 235.406 6.41775 232.65C14.9326 226.219 20.724 223.958 30.8799 223.099C37.9748 222.499 42.8265 222.665 65.0438 224.271C106.033 227.233 144.326 228.998 183.077 229.712C225.19 230.488 224.75 230.471 229.476 231.523L233.853 232.496L232.701 237.871C232.066 240.827 231.055 244.294 230.453 245.576C229.779 247.011 230.016 247.906 231.07 247.906C232.72 247.906 236.85 238.098 236.825 234.23C236.803 230.451 232.311 229.891 197.488 229.326C152.129 228.591 111.849 226.866 71.0753 223.914C47.0447 222.175 36.198 221.771 29.7314 222.375ZM876.211 228.917C867.893 229.859 864.416 231.12 855.601 236.396C850.111 239.683 840.686 246.767 840.674 247.616C840.67 247.776 841.396 247.906 842.285 247.906C843.175 247.906 844.824 246.904 845.95 245.68C848.764 242.622 858.904 235.943 865.328 232.918C873.868 228.895 884.329 228.053 903.316 229.86C908.58 230.361 926.592 232.205 943.341 233.956C1002.81 240.176 1090.28 248.058 1097.17 247.817C1099.95 247.72 1099.15 247.565 1093.87 247.173C1062.5 244.845 978.789 236.971 923.278 231.124C894.911 228.136 886.565 227.745 876.211 228.917ZM45.5604 235.418C42.1165 236.049 22.1528 247.486 23.8164 247.874C25.219 248.201 26.6825 247.48 35.26 242.231C40.0804 239.282 45.2349 236.565 46.7176 236.192C48.4578 235.754 51.933 235.515 56.5376 235.515C69.3543 235.517 188.517 240.478 191.46 241.133C193.315 241.545 194.355 242.698 194.789 244.82C195.152 246.602 196.181 247.906 197.223 247.906C199.533 247.906 197.897 242.119 195.278 241.031C194.249 240.603 192.086 240.14 190.473 240.002C184.976 239.532 62.2734 234.74 55.7528 234.74C52.1349 234.74 47.619 235.04 45.5604 235.418ZM71.4947 242.211C67.2973 242.683 64.6331 243.927 61.9967 246.648C61.2536 247.414 61.4624 247.906 62.5309 247.906C63.495 247.906 65.2648 246.931 66.4638 245.74C70.0156 242.208 70.9779 242.153 108.097 243.36C125.182 243.915 140.84 244.57 142.89 244.814C144.94 245.058 147.869 245.897 149.395 246.679C151.452 247.73 152.355 247.919 152.874 247.403C153.716 246.563 149.461 245.03 144.124 244.252C141.984 243.94 126.529 243.241 109.779 242.699C74.3487 241.552 77.046 241.587 71.4947 242.211ZM902.079 243.558C898.503 244.181 892.875 246.594 892.875 247.507C892.875 248.393 896.154 247.83 897.208 246.763C899.02 244.926 904.545 243.647 910.66 243.647C913.603 243.647 926.136 244.615 938.51 245.799C950.885 246.983 962.212 247.898 963.679 247.832C967.648 247.655 916.627 242.871 910.869 242.881C908.151 242.885 904.195 243.19 902.079 243.558Z" fill="white"/>
</svg>
